HIERARCHY
ROOT Hips
{
	OFFSET 0.00000 0.00000 0.00000
	CHANNELS 6 Xposition Yposition Zposition Zrotation Yrotation Xrotation 
	JOINT LHipJoint
	{
		OFFSET 0 0 0
		CHANNELS 3 Zrotation Yrotation Xrotation
		JOINT LeftHip
		{
			OFFSET 1.36306 -1.79463 0.83929
			CHANNELS 3 Zrotation Yrotation Xrotation
			JOINT LeftKnee
			{
				OFFSET 2.44811 -6.72613 0.00000
				CHANNELS 3 Zrotation Yrotation Xrotation
				JOINT LeftAnkle
				{
					OFFSET 2.56220 -7.03959 0.00000
					CHANNELS 3 Zrotation Yrotation Xrotation
					JOINT LeftToe
					{
						OFFSET 0.15764 -0.43311 2.32255
						CHANNELS 3 Zrotation Yrotation Xrotation
						End Site
						{
							OFFSET 0.00000 -0.00000 1.18966
						}
					}
				}
			}
		}
	}
	JOINT RHipJoint
	{
		OFFSET 0 0 0
		CHANNELS 3 Zrotation Yrotation Xrotation
		JOINT RightHip
		{
			OFFSET -1.30552 -1.79463 0.83929
			CHANNELS 3 Zrotation Yrotation Xrotation
			JOINT RightKnee
			{
				OFFSET -2.54253 -6.98555 0.00000
				CHANNELS 3 Zrotation Yrotation Xrotation
				JOINT RightAnkle
				{
					OFFSET -2.56826 -7.05623 0.00000
					CHANNELS 3 Zrotation Yrotation Xrotation
					JOINT RightToe
					{
						OFFSET -0.16473 -0.45259 2.36315
						CHANNELS 3 Zrotation Yrotation Xrotation
						End Site
						{
							OFFSET -0.00000 -0.00000 1.21082
						}
					}
				}
			}
		}
	}
	JOINT lowerback
	{
		OFFSET 0 0 0
		CHANNELS 3 Zrotation Yrotation Xrotation
		JOINT Chest
		{
			OFFSET 0.02827 2.03559 -0.19338
			CHANNELS 3 Zrotation Yrotation Xrotation
			JOINT Chest2
			{
				OFFSET 0.05672 2.04885 -0.04275
				CHANNELS 3 Zrotation Yrotation Xrotation
				JOINT lowerneck
				{
					OFFSET 0 0 0
					CHANNELS 3 Zrotation Yrotation Xrotation
					JOINT Neck
					{
						OFFSET -0.05417 1.74624 0.17202
						CHANNELS 3 Zrotation Yrotation Xrotation
						JOINT Head
						{
							OFFSET 0.10407 1.76136 -0.12397
							CHANNELS 3 Zrotation Yrotation Xrotation
							End Site
							{
								OFFSET 0.03720 1.77044 -0.06241
							}
						}
					}
				}
				JOINT LeftCollar
				{
					OFFSET 0 0 0
					CHANNELS 3 Zrotation Yrotation Xrotation
					JOINT LeftShoulder
					{
						OFFSET 3.36241 1.20089 -0.31121
CHANNELS 3 Zrotation Xrotation Yrotation
						JOINT LeftElbow
						{
OFFSET 0 -4.983000 -0.000000
CHANNELS 3 Zrotation Xrotation Yrotation
							JOINT LeftWrist
							{
OFFSET 0 -3.483560 -0.000000
CHANNELS 3 Zrotation Xrotation Yrotation
								JOINT lhand
								{
									OFFSET 0 0 0
CHANNELS 3 Zrotation Xrotation Yrotation
									JOINT LFingers
									{
OFFSET 0 -0.715260 -0.000000
CHANNELS 3 Zrotation Xrotation Yrotation
										End Site
										{
OFFSET 0 -0.576660 -0.000000
										}
									}
								}
								JOINT LThumb
								{
OFFSET 0 0.000000 0.000000
CHANNELS 3 Zrotation Xrotation Yrotation
									End Site
									{
OFFSET 0 -0.585470 0.585470
									}
								}
							}
						}
					}
				}
				JOINT RightCollar
				{
					OFFSET 0 0 0
					CHANNELS 3 Zrotation Yrotation Xrotation
					JOINT RightShoulder
					{
						OFFSET -3.13660 1.37405 -0.40465
CHANNELS 3 Zrotation Xrotation Yrotation
						JOINT RightElbow
						{
OFFSET 0 -5.241900 -0.000000
CHANNELS 3 Zrotation Xrotation Yrotation
							JOINT RightWrist
							{
OFFSET 0 -3.444170 -0.000000
CHANNELS 3 Zrotation Xrotation Yrotation
								JOINT rhand
								{
									OFFSET 0 0 0
CHANNELS 3 Zrotation Xrotation Yrotation
									JOINT RFingers
									{
OFFSET 0 -0.622530 -0.000000
CHANNELS 3 Zrotation Xrotation Yrotation
										End Site
										{
OFFSET 0 -0.501900 -0.000000
										}
									}
								}
								JOINT RThumb
								{
OFFSET 0 0.000000 0.000000
CHANNELS 3 Zrotation Xrotation Yrotation
									End Site
									{
OFFSET 0 -0.509560 0.509560
									}
								}
							}
						}
					}
				}
			}
		}
	}
}
MOTION
Frames: 8
Frame Time: .0083333
14.0552 26.4068 49.0001 6.4877 -178.9130 364.6720 0.0000 0.0000 0.0000 -7.8985 -4.8939 -28.4540 3.9775 12.1304 36.1947 2.8064 -10.3205 -30.1995 0.1649 -2.6158 -7.2110 0.0000 0.0000 0.0000 30.0196 14.3061 -23.5994 -3.2107 -11.0285 32.3761 -0.1845 -22.3794 -32.7264 -0.2009 -2.8862 7.9622 -0.3694 2.2031 28.7023 4.2185 -0.6186 12.1057 5.0987 -1.9037 -2.1750 -10.8275 -12.6824 -31.0466 17.9394 -5.1770 -21.9884 7.2523 1.5600 -1.1310 0.0000 -0.0000 0.0000 17.4376 -62.8097 -28.2582 17.0972 -26.9858 4.1314 14.2028 26.0932 15.3064 0.0 0.0 0.0 -7.1250 0.0 0.0 -9.0382 14.3515 -6.6 0.0000 -0.0000 0.0000 -19.7782 -62.6987 46.1808 -51.4884 -53.5784 -27.3673 -6.5713 9.5456 16.2042 0.0 0.0 0.0 7.1250 0.0 -0.0 19.6512 45.3244 -0.1637
14.0296 26.4332 48.9293 6.3228 -178.4320 364.7180 0.0000 0.0000 0.0000 -8.1586 -5.0971 -28.3471 3.9873 12.1434 36.2413 2.7677 -10.7259 -29.9862 0.1661 -2.6258 -7.2387 0.0000 0.0000 0.0000 29.7912 13.8191 -23.6721 -3.2470 -11.0845 32.5653 -0.1280 -22.3251 -32.3013 -0.3140 -3.6024 9.9607 -0.2272 1.9851 28.3571 4.2622 -0.8072 12.0464 5.1067 -1.9707 -2.0649 -10.5520 -12.5564 -31.7264 17.4282 -5.2860 -21.1023 7.0110 1.4549 -0.8199 0.0000 0.0000 0.0000 16.5887 -62.6415 -29.2543 16.8444 -26.6522 4.0173 14.5366 26.1529 14.965 0.0 0.0 0.0 -7.1250 0.0 0.0 -8.8112 14.6694 -6.3697 0.0000 0.0000 0.0000 -20.8843 -62.8238 45.1377 -55.9711 -55.1371 -31.0113 -7.5424 9.0956 15.9251 0.0 0.0 0.0 7.1250 0.0 -0.0 18.6884 45.1752 -0.0838
14.0342 26.4493 48.8535 6.2106 -179.6670 364.3940 0.0000 0.0000 0.0000 -8.3246 -3.8352 -27.7505 4.0116 12.1758 36.3569 2.7689 -11.0688 -29.9984 0.1395 -2.4074 -6.6329 0.0000 0.0000 0.0000 29.9110 14.4441 -22.6682 -3.2795 -11.1343 32.7341 -0.2027 -21.7132 -31.9709 -0.4440 -4.2756 11.8532 -1.1590 2.7546 28.2425 4.3686 -0.1048 12.1851 5.5563 -1.6908 -1.9299 -10.1570 -12.3954 -31.6617 16.7934 -5.3241 -20.9876 6.7191 1.3619 -0.8481 -0.0000 0.0000 0.0000 15.6801 -62.5506 -30.3358 16.5466 -26.2562 3.8846 14.9837 26.3233 14.5165 0.0 0.0 0.0 -7.1250 0.0 0.0 -8.5059 15.0877 -6.067 -0.0000 0.0000 0.0000 -21.9833 -63.2255 44.2078 -60.3725 -56.4084 -34.6512 -9.9164 9.0141 16.435 0.0 0.0 0.0 7.1250 0.0 -0.0 16.7463 45.9509 -0.4043
14.0000 26.4762 48.7865 6.0898 -178.8320 364.3390 0.0000 0.0000 0.0000 -8.5324 -4.6500 -27.4285 4.0362 12.2085 36.4735 2.7385 -10.9190 -29.8262 0.1442 -2.4473 -6.7436 0.0000 0.0000 0.0000 29.6909 13.6757 -22.7441 -3.3105 -11.1816 32.8947 -0.3052 -21.3103 -32.1049 -0.5724 -4.8451 13.4673 -0.6769 2.3373 28.0131 4.4226 -0.4695 12.1153 5.4335 -1.8342 -1.8600 -9.7488 -12.2177 -31.3802 16.0894 -5.2729 -21.2105 6.4147 1.3244 -1.0195 0.0000 0.0000 0.0000 14.9325 -62.0987 -31.4809 16.4872 -26.1769 3.8584 15.3711 26.3335 13.8217 0.0 0.0 0.0 -7.1250 0.0 0.0 -8.2385 15.7642 -5.7509 0.0000 0.0000 0.0000 -23.1094 -63.8332 42.6842 -65.0667 -57.5155 -38.5872 -8.051 9.0164 16.5557 0.0 0.0 0.0 7.1250 0.0 -0.0 18.4641 45.8369 -0.3949
13.9918 26.4930 48.7152 6.2584 -179.5010 364.1730 0.0000 0.0000 0.0000 -8.4163 -3.9045 -27.0922 4.0665 12.2484 36.6164 2.7649 -10.7478 -29.9706 0.1705 -2.6597 -7.3328 0.0000 0.0000 0.0000 30.0048 13.8588 -22.1938 -3.3403 -11.2265 33.0477 -0.3266 -20.9688 -31.8090 -0.6662 -5.2200 14.5371 -0.8224 2.6686 27.8588 4.5181 -0.0861 12.1424 5.5090 -1.6614 -1.7976 -9.4014 -12.0693 -31.4545 15.5004 -5.2478 -21.1064 6.1574 1.2910 -1.0371 -0.0000 -0.0000 0.0000 14.4356 -61.4809 -32.4709 16.5308 -26.2351 3.8776 15.7884 26.1084 13.1535 0.0 0.0 0.0 -7.1250 0.0 0.0 -7.9496 16.4141 -5.4323 -0.0000 -0.0000 0.0000 -24.2105 -64.5688 41.4339 -69.9334 -58.4225 -42.7139 -9.4314 9.1624 16.4472 0.0 0.0 0.0 7.1250 0.0 -0.0 17.1871 45.9029 -0.3946
13.9849 26.5017 48.6428 6.1723 -180.3680 363.8770 0.0000 0.0000 0.0000 -8.6074 -2.9614 -26.5894 4.0924 12.2823 36.7382 2.8116 -10.7456 -30.2301 0.2048 -2.9135 -8.0381 0.0000 0.0000 0.0000 30.0818 14.0314 -21.5136 -3.3801 -11.2863 33.2516 -0.2541 -20.8991 -31.2499 -0.7456 -5.5158 15.3857 -3.3886 -0.9137 27.6644 3.8054 1.5641 12.5805 5.6581 1.8849 -1.3100 -9.1202 -11.9146 -31.7318 14.9768 -5.2784 -20.6230 5.9267 1.2159 -0.9007 0.0000 -0.0000 0.0000 14.0016 -61.1423 -33.3761 16.4219 -26.0894 3.8296 15.9985 25.7532 12.829 0.0 0.0 0.0 -7.1250 0.0 0.0 -7.8038 16.7302 -5.2767 0.0000 -0.0000 0.0000 -25.3005 -65.4944 40.2612 -74.9234 -59.1235 -46.9817 -10.9985 9.0047 16.074 0.0 0.0 0.0 7.1250 0.0 -0.0 15.6479 45.7342 -0.2907
13.9433 26.5220 48.5804 5.6852 -179.1770 364.0920 0.0000 0.0000 0.0000 -9.2474 -4.0581 -26.5802 4.1043 12.2979 36.7940 2.7689 -10.9482 -29.9959 0.2172 -3.0004 -8.2798 0.0000 0.0000 0.0000 29.3590 13.0199 -22.1020 -3.4265 -11.3553 33.4879 -0.1873 -21.1327 -31.1121 -0.8414 -5.8510 16.3526 -0.8793 2.4715 27.2231 4.4287 -0.2866 12.1197 5.4755 -1.7327 -1.5103 -8.7214 -11.6292 -31.8176 14.2637 -5.1154 -20.4307 5.6349 1.2352 -0.9109 0.0000 -0.0000 0.0000 13.4427 -60.7874 -34.2482 16.2875 -25.9089 3.7707 16.0601 25.6064 12.6085 0.0 0.0 0.0 -7.1250 0.0 0.0 -7.7608 16.9518 -5.2092 0.0000 -0.0000 0.0000 -26.6162 -66.6134 38.3536 -79.7225 -59.5971 -51.1115 -11.8817 10.0026 15.2596 0.0 0.0 0.0 7.1250 0.0 -0.0 14.5916 45.0436 -0.0161
13.9412 26.5299 48.5246 5.2011 -180.1850 363.8790 0.0000 0.0000 0.0000 -9.8643 -3.0900 -26.1464 4.1146 12.3114 36.8427 2.7695 -11.0215 -30.0009 0.2137 -2.9758 -8.2114 0.0000 0.0000 0.0000 28.9754 13.4563 -21.4508 -3.4674 -11.4157 33.6952 -0.2038 -21.0770 -31.1487 -0.8899 -6.0131 16.8225 -3.9198 -0.8607 27.3137 3.6655 1.4134 12.4126 5.8537 1.7622 -1.3100 -8.1785 -11.2632 -31.7451 13.4461 -4.8262 -20.5359 5.2984 1.3208 -1.0504 -0.0000 0.0000 0.0000 12.9963 -60.1712 -34.9452 16.3186 -25.9508 3.7843 16.2362 25.4769 12.2011 0.0 0.0 0.0 -7.1250 0.0 0.0 -7.6381 17.357 -5.0571 -0.0000 0.0000 0.0000 -28.2496 -67.909 36.5442 -84.4185 -59.882 -55.1682 -14.0298 10.084 14.8676 0.0 0.0 0.0 7.1250 0.0 -0.0 12.5416 44.9082 0.0289
